<?xml version="1.0" standalone="no"?>
<!DOCTYPE svg PUBLIC "-//W3C//DTD SVG 20010904//EN"
 "http://www.w3.org/TR/2001/REC-SVG-20010904/DTD/svg10.dtd">
<svg version="1.0" xmlns="http://www.w3.org/2000/svg"
 width="700.000000pt" height="700.000000pt" viewBox="0 0 700.000000 700.000000"
 preserveAspectRatio="xMidYMid meet">
<metadata>
Created by potrace 1.14, written by Peter Selinger 2001-2017
</metadata>
<g transform="translate(0.000000,700.000000) scale(0.100000,-0.100000)"
fill="#000000" stroke="none">
<path d="M2610 6989 c-13 -5 -27 -13 -30 -17 -3 -4 -57 -43 -120 -85 -134 -91
-315 -215 -450 -308 -190 -131 -1117 -767 -1210 -829 -202 -136 -241 -185
-236 -290 3 -66 33 -127 80 -161 28 -21 243 -154 323 -200 17 -10 50 -29 72
-43 22 -15 43 -26 45 -26 3 0 36 -19 73 -42 93 -59 96 -60 198 -120 81 -47 95
-52 150 -52 71 0 131 27 168 76 22 30 133 227 357 633 42 77 90 163 105 190
40 71 207 373 305 550 46 83 103 186 128 230 24 44 58 105 75 135 16 30 50 90
74 134 25 43 47 93 50 111 5 32 -13 81 -39 103 -20 16 -89 23 -118 11z"/>
<path d="M3402 6985 c-78 -34 -94 -55 -214 -275 -14 -25 -82 -148 -153 -275
-71 -126 -142 -255 -158 -285 -17 -30 -69 -125 -117 -210 -48 -85 -100 -180
-117 -210 -16 -30 -124 -224 -238 -430 -115 -206 -216 -395 -225 -420 -29 -78
-10 -158 50 -219 71 -72 -3 -68 1280 -66 1274 1 1190 -3 1258 63 41 40 64 96
64 155 0 57 -15 90 -173 372 -61 110 -124 223 -139 250 -15 28 -105 190 -200
360 -95 171 -185 333 -200 360 -159 292 -426 764 -439 779 -48 56 -204 84
-279 51z"/>
<path d="M4278 6978 c-14 -13 -31 -33 -37 -45 -23 -46 -15 -70 69 -218 13 -22
36 -65 53 -95 16 -30 38 -68 47 -85 10 -16 29 -50 42 -75 31 -57 178 -321 245
-440 24 -42 50 -89 183 -330 120 -217 137 -247 178 -320 46 -82 83 -149 174
-314 46 -82 98 -165 117 -183 50 -49 126 -68 201 -51 28 7 80 36 450 259 245
146 379 232 394 253 49 65 59 152 27 221 -27 58 -43 73 -186 171 -71 48 -195
133 -275 189 -80 55 -197 135 -260 178 -63 43 -189 129 -280 192 -91 62 -237
162 -325 222 -88 59 -164 112 -170 116 -5 5 -128 89 -272 188 -291 199 -322
213 -375 167z"/>
<path d="M360 4857 c-48 -16 -116 -86 -129 -135 -8 -27 -11 -324 -11 -917 0
-973 -5 -912 65 -940 34 -15 66 -13 100 5 11 6 54 64 97 128 132 201 300 459
435 667 71 110 173 266 225 346 126 192 132 203 131 269 -1 65 -27 125 -72
163 -36 30 -657 402 -696 417 -33 13 -100 11 -145 -3z"/>
<path d="M6485 4856 c-16 -7 -129 -73 -250 -146 -121 -73 -233 -140 -250 -150
-85 -48 -173 -105 -193 -124 -40 -36 -64 -94 -64 -155 -1 -70 12 -95 175 -341
67 -102 248 -378 401 -614 154 -236 289 -437 299 -447 46 -43 137 -25 165 33
10 21 12 215 12 898 0 479 -3 883 -7 898 -30 120 -178 196 -288 148z"/>
<path d="M2452 4149 c-86 -17 -157 -102 -165 -196 -5 -61 7 -92 101 -254 33
-57 68 -120 79 -139 22 -38 742 -1299 855 -1497 90 -156 102 -168 180 -168 54
0 62 3 86 30 21 23 357 600 548 940 12 22 55 96 94 165 40 69 82 143 94 165
12 22 94 166 183 320 214 374 207 359 206 428 -2 76 -39 139 -107 182 l-49 30
-1036 0 c-570 1 -1051 -2 -1069 -6z"/>
<path d="M1620 3836 c-90 -28 -87 -24 -375 -466 -49 -74 -152 -232 -230 -350
-78 -118 -180 -273 -227 -345 -47 -71 -147 -224 -223 -340 -76 -115 -149 -230
-162 -255 -33 -63 -32 -125 1 -194 41 -84 101 -116 241 -130 33 -3 76 -8 95
-11 47 -6 204 -24 260 -31 25 -3 59 -7 75 -9 17 -2 57 -7 90 -10 33 -3 71 -8
85 -10 22 -4 96 -13 170 -20 99 -10 182 -20 245 -30 17 -2 57 -7 90 -10 101
-11 231 -26 245 -30 3 -1 41 -5 85 -9 44 -5 89 -10 100 -11 21 -4 117 -15 174
-20 19 -2 50 -6 70 -9 20 -3 61 -8 91 -11 57 -6 117 -13 160 -20 73 -11 182
-20 237 -20 52 0 66 4 88 25 15 14 32 34 37 45 17 31 10 92 -14 135 -41 70
-152 264 -169 295 -9 17 -66 117 -128 223 -61 106 -111 195 -111 198 0 2 -16
28 -35 58 -19 30 -35 57 -35 60 0 5 -79 144 -100 176 -5 8 -18 31 -29 50 -133
244 -569 993 -592 1019 -53 56 -138 79 -209 57z"/>
<path d="M5285 3840 c-41 -9 -90 -36 -116 -63 -19 -20 -54 -76 -120 -194 -13
-24 -97 -170 -185 -325 -89 -156 -171 -299 -182 -318 -45 -79 -186 -327 -202
-355 -52 -91 -105 -182 -114 -200 -20 -36 -137 -240 -147 -255 -78 -124 -261
-463 -265 -491 -14 -83 57 -150 151 -144 58 4 133 13 190 21 22 4 51 7 65 9
64 6 167 17 180 20 8 1 42 6 75 9 33 4 94 11 135 16 81 10 134 16 220 25 30 3
91 11 135 16 44 5 98 12 120 15 22 2 56 7 75 9 19 3 60 7 90 10 64 7 121 13
170 20 45 6 101 12 170 20 90 10 133 15 170 20 19 2 60 7 90 10 30 4 66 8 80
10 14 2 52 7 85 10 33 3 70 7 81 9 11 2 54 7 95 11 118 10 171 29 222 79 71
72 82 173 28 263 -25 43 -115 184 -141 223 -16 23 -145 219 -328 500 -91 140
-209 320 -261 400 -53 80 -98 150 -101 155 -3 6 -65 101 -137 210 -134 202
-165 235 -228 249 -56 12 -70 13 -100 6z"/>
<path d="M805 1283 c-11 -3 -33 -15 -50 -26 -155 -106 -120 -322 64 -387 67
-24 386 -141 476 -175 50 -18 135 -50 190 -70 92 -34 285 -106 380 -141 22 -8
150 -56 285 -106 135 -49 279 -103 320 -118 41 -15 216 -80 388 -144 171 -64
324 -116 338 -116 15 0 38 12 55 29 33 34 30 -17 30 486 0 176 -3 329 -5 340
-10 45 -27 76 -64 113 -39 39 -85 57 -172 67 -25 3 -65 8 -90 11 -25 2 -79 9
-120 14 -41 5 -97 12 -125 15 -27 3 -61 8 -75 10 -14 2 -52 6 -85 10 -33 3
-98 10 -145 16 -47 6 -103 12 -124 14 -21 3 -55 7 -75 9 -20 3 -61 8 -91 11
-30 4 -66 8 -80 10 -14 2 -53 7 -87 10 -35 4 -73 8 -85 10 -13 2 -50 6 -83 10
-33 3 -71 8 -85 10 -14 2 -50 7 -80 10 -30 3 -71 8 -90 11 -19 2 -57 6 -85 9
-27 3 -84 9 -125 15 -41 5 -97 12 -125 15 -76 8 -133 15 -213 25 -77 10 -133
11 -167 3z"/>
<path d="M6060 1286 c-3 -3 -35 -8 -70 -11 -36 -3 -76 -7 -90 -10 -14 -3 -47
-7 -75 -10 -27 -3 -66 -7 -85 -10 -19 -2 -64 -7 -100 -11 -36 -3 -74 -8 -84
-10 -11 -2 -44 -6 -75 -9 -31 -3 -72 -7 -91 -10 -33 -4 -156 -19 -260 -31 -25
-3 -58 -7 -75 -9 -16 -2 -55 -7 -85 -10 -80 -9 -169 -19 -300 -35 -41 -5 -101
-12 -133 -15 -32 -4 -66 -8 -75 -10 -9 -1 -51 -6 -92 -10 -41 -4 -82 -8 -90
-10 -8 -2 -44 -6 -80 -10 -36 -4 -73 -9 -82 -10 -9 -2 -48 -6 -85 -10 -155
-14 -213 -33 -257 -86 -55 -65 -56 -75 -57 -433 -1 -514 -4 -463 31 -498 26
-26 37 -30 68 -25 31 4 183 55 257 87 11 4 112 42 225 83 184 68 395 146 655
242 50 18 225 83 390 145 881 326 897 332 932 366 105 102 79 274 -52 341 -30
16 -155 30 -165 19z"/>
</g>
</svg>
